<svg width="1440" height="646" viewBox="0 0 1440 646" fill="none" xmlns="http://www.w3.org/2000/svg">
<path d="M1827 229.844C1827 520.432 1327.88 646 716.5 646C105.121 646 -387 520.432 -387 229.844C-387 -60.7446 108.621 -296.313 720 -296.313C1331.38 -296.313 1827 -60.7446 1827 229.844Z" fill="#FF6B00"/>
<path d="M1827 213.043C1827 504.672 1329.38 637.5 718 637.5C106.621 637.5 -387 504.672 -387 213.043C-387 -78.5873 108.621 -315 720 -315C1331.38 -315 1827 -78.5873 1827 213.043Z" fill="white"/>
<path d="M1827 213.043C1827 504.672 1329.38 637.5 718 637.5C106.621 637.5 -387 504.672 -387 213.043C-387 -78.5873 108.621 -315 720 -315C1331.38 -315 1827 -78.5873 1827 213.043Z" fill="white"/>
</svg>
